<svg width="30" height="30" viewBox="0 0 30 30" fill="none" xmlns="http://www.w3.org/2000/svg">
<g clip-path="url(#clip0_762:21882)">
<path d="M19.5495 10.7325H16.1095C15.7587 10.7325 15.4741 11.0171 15.4741 11.3679V14.808C15.4741 15.1589 15.7587 15.4434 16.1095 15.4434H19.5495C19.9004 15.4434 20.1849 15.1589 20.1849 14.808V11.3679C20.1849 11.0171 19.9004 10.7325 19.5495 10.7325ZM18.9141 14.1726H16.7449V12.0033H18.9141V14.1726Z" fill="#100D0D"/>
<path d="M13.8328 16.4058H10.3927C10.0418 16.4058 9.75732 16.6903 9.75732 17.0412V20.4813C9.75732 20.8321 10.0418 21.1167 10.3927 21.1167H13.8328C14.1837 21.1167 14.4682 20.8321 14.4682 20.4813V17.0412C14.4682 16.6903 14.1837 16.4058 13.8328 16.4058ZM13.1974 19.8458H11.0281V17.6765H13.1974V19.8458Z" fill="#100D0D"/>
<path d="M19.5495 16.4058H16.1095C15.7587 16.4058 15.4741 16.6903 15.4741 17.0412V20.4813C15.4741 20.8321 15.7587 21.1167 16.1095 21.1167H19.5495C19.9004 21.1167 20.1849 20.8321 20.1849 20.4813V17.0412C20.1849 16.6903 19.9004 16.4058 19.5495 16.4058ZM18.9141 19.8458H16.7449V17.6765H18.9141V19.8458Z" fill="#100D0D"/>
<path d="M29.7287 17.1912L22.3596 12.0383V11.8197C22.4856 11.8888 22.632 11.9137 22.7749 11.8886C22.941 11.8595 23.0886 11.7655 23.1853 11.6275L24.4479 9.82614C24.5447 9.68803 24.5826 9.51717 24.5533 9.351C24.524 9.18494 24.4299 9.03729 24.2918 8.94067L15.3641 2.69778C15.1455 2.54491 14.8545 2.54491 14.6359 2.69778L5.70815 8.94061C5.56993 9.03723 5.47583 9.18495 5.44647 9.35094C5.41717 9.51706 5.45508 9.68797 5.55194 9.82608L6.81464 11.6275C6.91132 11.7655 7.05903 11.8594 7.22503 11.8886C7.26159 11.895 7.29827 11.8981 7.33489 11.8981C7.44153 11.8981 7.54647 11.8709 7.64028 11.8194V12.0383L0.271343 17.1912C0.0123 17.3724 -0.0741846 17.7164 0.0683157 17.9985L1.14885 20.1367C1.23199 20.3013 1.38263 20.4215 1.56152 20.4664C1.6125 20.4792 1.66441 20.4855 1.71592 20.4855C1.7734 20.4855 1.83047 20.4772 1.88572 20.4619V26.7814C1.88572 27.1322 2.17019 27.4168 2.52111 27.4168H5.9444C5.94481 27.4168 5.94522 27.4168 5.94563 27.4168C5.94598 27.4168 5.94645 27.4168 5.94686 27.4168H8.27567H12.9052C12.9056 27.4168 12.9061 27.4168 12.9065 27.4168H17.0935C17.0939 27.4168 17.0943 27.4168 17.0947 27.4168H21.7243H24.0531C24.0535 27.4168 24.0539 27.4168 24.0544 27.4168C24.0548 27.4168 24.0552 27.4168 24.0556 27.4168H27.4789C27.8297 27.4168 28.1143 27.1322 28.1143 26.7814V20.462C28.1695 20.4773 28.2265 20.4855 28.284 20.4855C28.3356 20.4855 28.3874 20.4793 28.4384 20.4665C28.6173 20.4216 28.7679 20.3013 28.851 20.1368L29.9316 17.9986C30.0742 17.7163 29.9877 17.3724 29.7287 17.1912ZM7.64028 26.1461H6.58102V21.6675C6.58102 21.3166 6.29655 21.0321 5.94563 21.0321C5.59471 21.0321 5.31024 21.3166 5.31024 21.6675V26.1461H3.1565V19.6158L4.84764 18.4292L7.64028 16.47V26.1461ZM7.64034 14.9176L2.15625 18.7652C2.15625 18.7652 2.15619 18.7652 2.15619 18.7652L1.95205 18.9084L1.45101 17.917L7.6404 13.589V14.9176H7.64034ZM16.4581 26.1461H13.5419V26.1461V23.2299H16.4581V26.1461ZM21.089 12.3694V15.2481V15.2481V26.1462H17.729V22.5945C17.729 22.2436 17.4444 21.9591 17.0936 21.9591H12.9066C12.5557 21.9591 12.2712 22.2436 12.2712 22.5945V26.1461H8.91124V15.248H8.91118V10.9332L15 6.66137L21.0889 10.9332V12.3694H21.089ZM22.0892 10.0825L15.3649 5.36498C15.3375 5.34576 15.309 5.32894 15.2796 5.31459C15.1915 5.2714 15.0958 5.24978 15 5.24978C14.8723 5.24978 14.7446 5.28816 14.6351 5.36498L7.91081 10.0826C7.91075 10.0827 7.91064 10.0827 7.91058 10.0828L7.49046 10.3776L6.95772 9.61754L15 3.99376L23.0423 9.61748L22.5095 10.3775L22.0896 10.083C22.0895 10.0828 22.0894 10.0827 22.0892 10.0825ZM26.8436 26.1461H26.8435H24.6898V21.6675C24.6898 21.3166 24.4053 21.0321 24.0544 21.0321C23.7036 21.0321 23.419 21.3166 23.419 21.6675V26.1461H22.3598V16.47L26.3212 19.2492L26.8436 19.6158V26.1461ZM28.048 18.9084L27.8439 18.7652L27.8438 18.7652L22.3596 14.9175V13.589L28.549 17.917L28.048 18.9084Z" fill="#100D0D"/>
<path d="M24.677 19.4464C24.6694 19.4058 24.6567 19.3658 24.6408 19.3276C24.6249 19.2895 24.6052 19.2526 24.5823 19.2178C24.5595 19.1834 24.5328 19.1503 24.5035 19.1211C24.4743 19.0919 24.4419 19.0652 24.407 19.0424C24.3726 19.0195 24.3358 18.9998 24.297 18.9839C24.2589 18.968 24.2189 18.956 24.1783 18.9477C24.0963 18.9312 24.0124 18.9312 23.9305 18.9477C23.8898 18.956 23.8498 18.968 23.811 18.9839C23.7728 18.9998 23.736 19.0195 23.7017 19.0424C23.6667 19.0652 23.6343 19.0919 23.6051 19.1211C23.5759 19.1504 23.5492 19.1834 23.5263 19.2178C23.5028 19.2527 23.4837 19.2895 23.4678 19.3276C23.4519 19.3658 23.4392 19.4058 23.431 19.4464C23.4227 19.4878 23.4189 19.5291 23.4189 19.571C23.4189 19.6123 23.4228 19.6536 23.431 19.6949C23.4392 19.7355 23.4519 19.7756 23.4678 19.8137C23.4837 19.8518 23.5027 19.8887 23.5263 19.9236C23.5491 19.9578 23.5759 19.9904 23.6051 20.0202C23.6343 20.0494 23.6667 20.0754 23.7017 20.099C23.7361 20.1218 23.7728 20.1416 23.811 20.1575C23.8497 20.1734 23.8898 20.1854 23.9305 20.1937C23.9711 20.2019 24.0131 20.2063 24.0544 20.2063C24.0956 20.2063 24.1377 20.2019 24.1783 20.1937C24.219 20.1854 24.259 20.1734 24.2971 20.1575C24.3358 20.1416 24.3727 20.1219 24.407 20.099C24.4419 20.0755 24.4743 20.0494 24.5036 20.0202C24.5329 19.9903 24.5595 19.9579 24.5824 19.9236C24.6052 19.8886 24.625 19.8517 24.6409 19.8137C24.6567 19.7756 24.6695 19.7355 24.6771 19.6949C24.6853 19.6536 24.6898 19.6123 24.6898 19.571C24.6897 19.529 24.6853 19.4878 24.677 19.4464Z" fill="#100D0D"/>
<path d="M6.56819 19.4464C6.56057 19.4058 6.54785 19.3658 6.53197 19.3276C6.5161 19.2895 6.49641 19.2526 6.4735 19.2178C6.45065 19.1834 6.42393 19.1503 6.39469 19.1211C6.36545 19.0919 6.33305 19.0652 6.29813 19.0424C6.26379 19.0195 6.22693 18.9998 6.18885 18.9839C6.15012 18.968 6.11004 18.956 6.06938 18.9477C5.98805 18.9312 5.90356 18.9312 5.82158 18.9477C5.78092 18.956 5.7409 18.968 5.70275 18.9839C5.66402 18.9998 5.62717 19.0195 5.59283 19.0424C5.55791 19.0652 5.52551 19.0919 5.49627 19.1211C5.46703 19.1504 5.44037 19.1834 5.41746 19.2178C5.39461 19.2527 5.37486 19.2895 5.35898 19.3276C5.34311 19.3658 5.33039 19.4058 5.32277 19.4464C5.31451 19.4878 5.31006 19.5291 5.31006 19.571C5.31006 19.6123 5.31451 19.6536 5.32277 19.6949C5.33104 19.7355 5.34311 19.7756 5.35898 19.8137C5.37486 19.8519 5.39455 19.8887 5.41746 19.9236C5.44031 19.9578 5.46703 19.9904 5.49627 20.0202C5.52551 20.0494 5.55791 20.0754 5.59283 20.099C5.62717 20.1218 5.66402 20.1416 5.70275 20.1575C5.7409 20.1734 5.78092 20.1854 5.82158 20.1937C5.86225 20.2019 5.9042 20.2063 5.94551 20.2063C5.98682 20.2063 6.02877 20.2019 6.06943 20.1937C6.1101 20.1854 6.15012 20.1734 6.18826 20.1575C6.22699 20.1416 6.26385 20.1219 6.29818 20.099C6.33311 20.0755 6.36551 20.0494 6.39475 20.0202C6.42399 19.9903 6.45065 19.9579 6.47356 19.9236C6.49641 19.8886 6.51615 19.8517 6.53203 19.8137C6.54791 19.7756 6.56063 19.7355 6.56824 19.6949C6.57651 19.6536 6.58096 19.6123 6.58096 19.571C6.5809 19.529 6.57645 19.4878 6.56819 19.4464Z" fill="#100D0D"/>
</g>
<defs>
<clipPath id="clip0_762:21882">
<rect width="30" height="30" fill="white"/>
</clipPath>
</defs>
</svg>
