<svg width="30" height="30" viewBox="0 0 30 30" fill="none" xmlns="http://www.w3.org/2000/svg"><path d="M29.3371 8.81642H21.4813V1.68265C21.4813 1.31655 21.1845 1.01978 20.8184 1.01978H6.10335C5.73725 1.01978 5.44048 1.31655 5.44048 1.68265V13.7165C3.74132 14.0245 2.4406 15.4916 2.39232 17.2668.994451 17.6937.0 18.9945.0 20.502.0 22.3677 1.51781 23.8855 3.38343 23.8855H5.44054V28.116 28.3173C5.44054 28.6834 5.73731 28.9802 6.10341 28.9802H11.163h4.5959 5.0596 8.5186C29.7032 28.9802 30 28.6834 30 28.3173V9.47929C29.9999 9.1132 29.7032 8.81642 29.3371 8.81642zM10.5 27.6545H6.76628V23.8855H8.82449C9.43387 23.8855 10.0057 23.7228 10.5 23.4396v4.2149zM10.6922 21.364C10.6829 21.3842 10.6732 21.404 10.6633 21.4238 10.6554 21.4394 10.6476 21.4551 10.6394 21.4704 10.6328 21.483 10.6257 21.4952 10.6187 21.5076 10.2658 22.1349 9.594 22.5597 8.82449 22.5597H6.76628V20.154C6.76628 19.7879 6.4695 19.4911 6.10341 19.4911 5.73731 19.4911 5.44054 19.7879 5.44054 20.154V22.5597H3.38343C2.24877 22.5597 1.32574 21.6366 1.32574 20.502 1.32574 19.4625 2.10281 18.5847 3.13335 18.4602 3.46622 18.4199 3.71671 18.1374 3.71671 17.802V17.3691C3.71671 16.0527 4.78763 14.9818 6.10399 14.9818 7.29655 14.9818 8.28766 15.8608 8.4635 17.005 8.46368 17.0062 8.46385 17.0075 8.46403 17.0087 8.46924 17.0434 8.47364 17.0783 8.47733 17.1134 8.47821 17.1217 8.47903 17.13 8.47985 17.1383 8.48272 17.1675 8.48483 17.197 8.48659 17.2265 8.48717 17.2362 8.48793 17.2459 8.48828 17.2556 8.4901 17.2933 8.49116 17.331 8.49116 17.3691V17.802C8.49116 17.8439 8.49508 17.885 8.50258 17.9249 8.51008 17.9648 8.52116 18.0036 8.53551 18.0406 8.54266 18.0592 8.55069 18.0774 8.55942 18.0951 8.65574 18.2903 8.84565 18.4325 9.07446 18.4601 9.07645 18.4604 9.07838 18.4607 9.08037 18.461 9.10932 18.4646 9.13821 18.4687 9.16668 18.4735 9.18959 18.4773 9.21244 18.4819 9.23518 18.4865 9.24215 18.4879 9.24924 18.4891 9.25621 18.4906 9.67258 18.5798 10.054 18.7981 10.3449 19.1169 10.3461 19.1181 10.3473 19.1191 10.3485 19.1203 10.6812 19.4874 10.8821 19.9738 10.8821 20.502 10.8821 20.8098 10.8137 21.1016 10.6922 21.364zM11.3618 18.0072h0H11.1088C10.7438 17.6726 10.3046 17.4161 9.81561 17.2669 9.81414 17.2135 9.81139 17.1604 9.8077 17.1075 9.80729 17.1017 9.80676 17.096 9.80635 17.0903 9.80553 17.0796 9.80447 17.069 9.80359 17.0584 9.80049 17.0208 9.79703 16.9832 9.79281 16.9458 9.79193 16.9384 9.79094 16.9311 9.79012 16.9237 9.78959 16.919 9.789 16.9143 9.78842 16.9096 9.78754 16.9025 9.78672 16.8953 9.78578 16.8881 9.78115 16.8518 9.77588 16.8158 9.7702 16.7798 9.76979 16.7774 9.76938 16.775 9.76908 16.7726 9.73504 16.5605 9.68336 16.3527 9.6134 16.1511H11.362V18.0072H11.3618zM15.0959 27.6545H11.8258V22.279H12.0246 15.0959V27.6545zM20.1556 9.47929V27.6545H16.4217V22.279H16.9589C17.325 22.279 17.6218 21.9822 17.6218 21.6161 17.6218 21.25 17.325 20.9533 16.9589 20.9533H15.7588 12.1769C12.1967 20.8055 12.2079 20.6551 12.2079 20.502 12.2079 20.0926 12.134 19.6985 11.999 19.3329H12.0246C12.3907 19.3329 12.6875 19.0361 12.6875 18.6701V15.4882C12.6875 15.1222 12.3907 14.8254 12.0246 14.8254H8.8061C8.77164 14.7888 8.73637 14.7529 8.70045 14.7178 8.68692 14.7046 8.67285 14.6919 8.6592 14.6788 8.63172 14.6527 8.60418 14.6266 8.57588 14.6013 8.55801 14.5853 8.53955 14.57 8.52139 14.5544 8.4976 14.534 8.47393 14.5135 8.44961 14.4936 8.42987 14.4775 8.40977 14.4619 8.38967 14.4462 8.36612 14.4277 8.34256 14.4094 8.3186 14.3915 8.29768 14.3758 8.27635 14.3606 8.25508 14.3454 8.23118 14.3283 8.20709 14.3115 8.18284 14.295 8.16104 14.2802 8.13907 14.2656 8.11692 14.2512 8.09219 14.2352 8.06711 14.2196 8.04204 14.2041 8.01977 14.1904 7.9975 14.1767 7.97495 14.1634 7.94881 14.1481 7.92233 14.1335 7.89584 14.1188 7.87358 14.1065 7.85143 14.0939 7.82887 14.0821 7.8001 14.0669 7.77086 14.0526 7.74168 14.0382 7.72083 14.0279 7.70014 14.0171 7.67905 14.0072 7.63 13.9841 7.58049 13.9621 7.53028 13.9411 7.51206 13.9335 7.49336 13.9267 7.47491 13.9193 7.4411 13.9059 7.40735 13.8924 7.37301 13.8798 7.34999 13.8714 7.32667 13.8639 7.30346 13.8559 7.27317 13.8455 7.24282 13.8351 7.21217 13.8255 7.18774 13.8179 7.16301 13.8108 7.13835 13.8037 7.10835 13.7949 7.07823 13.7864 7.04794 13.7784 7.02274 13.7717 6.99749 13.7656 6.97212 13.7595 6.94159 13.7521 6.91089 13.7451 6.87995 13.7386 6.85464 13.7331 6.82926 13.728 6.80372 13.7231 6.79112 13.7207 6.77876 13.7177 6.76616 13.7154V2.34552H20.1554V9.47929H20.1556zM28.6742 27.6545H21.4813V10.1422H28.6742V27.6545z" fill="#100d0d"/><path d="M26.6113 12.1292H23.4446C23.0785 12.1292 22.7817 12.4259 22.7817 12.792V16.5952 20.3982 24.1967C22.7817 24.5628 23.0785 24.8596 23.4446 24.8596H26.6113C26.9774 24.8596 27.2742 24.5628 27.2742 24.1967V20.3982 16.5952 12.792C27.2742 12.4259 26.9775 12.1292 26.6113 12.1292zM25.9484 23.5338H24.1075V21.0611H25.9484V23.5338zM25.9484 19.7354H24.1075V17.2581H25.9484V19.7354zM25.9484 15.9323H24.1075V13.4549H25.9484V15.9323z" fill="#100d0d"/><path d="M19.615 21.1475C19.5845 21.1171 19.5507 21.0892 19.5142 21.0653 19.4784 21.0415 19.44 21.0209 19.4002 21.0043 19.3598 20.9877 19.3187 20.9745 19.2762 20.9665 19.1907 20.9493 19.1026 20.9493 19.0171 20.9665 18.9746 20.9745 18.9329 20.9877 18.8931 21.0043 18.8527 21.0209 18.8142 21.0415 18.7784 21.0653 18.742 21.0892 18.7082 21.117 18.6776 21.1475 18.6472 21.178 18.6193 21.2118 18.5954 21.2483 18.5716 21.2841 18.551 21.3225 18.5344 21.3623 18.5179 21.4028 18.5053 21.4445 18.4966 21.487 18.488 21.5294 18.4834 21.5732 18.4834 21.6162 18.4834 21.6593 18.488 21.7031 18.4966 21.7455 18.5053 21.7879 18.5179 21.8297 18.5344 21.8695 18.551 21.9099 18.5716 21.9483 18.5954 21.9841 18.6193 22.0206 18.6471 22.0544 18.6776 22.0849 18.7081 22.1154 18.7419 22.1433 18.7784 22.1671 18.8142 22.191 18.8527 22.2115 18.8931 22.2281 18.9329 22.2447 18.9746 22.2573 19.0171 22.2659 19.0595 22.2745 19.1033 22.2791 19.1463 22.2791 19.1901 22.2791 19.2332 22.2745 19.2762 22.2659 19.3187 22.2573 19.3597 22.2447 19.4002 22.2281 19.44 22.2115 19.4784 22.191 19.5142 22.1671 19.5507 22.1433 19.5845 22.1154 19.615 22.0849 19.739 21.9616 19.8093 21.7906 19.8093 21.6163 19.8093 21.442 19.739 21.2708 19.615 21.1475z" fill="#100d0d"/><path d="M12.0247 3.71716H8.53348C8.16738 3.71716 7.87061 4.01394 7.87061 4.38003V7.56184C7.87061 7.92794 8.16738 8.22471 8.53348 8.22471H12.0247C12.3908 8.22471 12.6875 7.92794 12.6875 7.56184V4.38009C12.6875 4.01394 12.3908 3.71716 12.0247 3.71716zM11.3618 6.89897H9.19635V5.04296H11.3618V6.89897z" fill="#100d0d"/><path d="M18.238 3.71716H14.7469C14.3808 3.71716 14.084 4.01394 14.084 4.38003V7.56184C14.084 7.92794 14.3808 8.22471 14.7469 8.22471H18.238C18.6041 8.22471 18.9009 7.92794 18.9009 7.56184V4.38009C18.9009 4.01394 18.6041 3.71716 18.238 3.71716zM17.5752 6.89897H15.4097V5.04296H17.5752V6.89897z" fill="#100d0d"/><path d="M12.0247 9.27124H8.53348C8.16738 9.27124 7.87061 9.56802 7.87061 9.93411V13.1159C7.87061 13.482 8.16738 13.7788 8.53348 13.7788H12.0247C12.3908 13.7788 12.6875 13.482 12.6875 13.1159V9.93411C12.6875 9.56802 12.3908 9.27124 12.0247 9.27124zM11.3618 12.4531H9.19635V10.597H11.3618V12.4531z" fill="#100d0d"/><path d="M18.238 9.27124H14.7469C14.3808 9.27124 14.084 9.56802 14.084 9.93411V13.1159C14.084 13.482 14.3808 13.7788 14.7469 13.7788H18.238C18.6041 13.7788 18.9009 13.482 18.9009 13.1159V9.93411C18.9009 9.56802 18.6041 9.27124 18.238 9.27124zM17.5752 12.4531H15.4097V10.597H17.5752V12.4531z" fill="#100d0d"/><path d="M18.238 14.8254H14.7469C14.3808 14.8254 14.084 15.1222 14.084 15.4883V18.6701C14.084 19.0362 14.3808 19.333 14.7469 19.333H18.238C18.6041 19.333 18.9009 19.0362 18.9009 18.6701V15.4883C18.9009 15.1222 18.6041 14.8254 18.238 14.8254zM17.5752 18.0073H15.4097V16.1512H17.5752V18.0073z" fill="#100d0d"/><path d="M6.75402 17.8371C6.74541 17.7946 6.73281 17.7529 6.71623 17.7131 6.69965 17.6726 6.67908 17.6342 6.65523 17.5984 6.63139 17.562 6.60355 17.5282 6.57303 17.4976 6.54256 17.4672 6.50875 17.4393 6.47224 17.4154 6.43644 17.3916 6.39801 17.371 6.35758 17.3544 6.31779 17.3378 6.27607 17.3252 6.23359 17.3166 6.1481 17.2994 6.05992 17.2994 5.97443 17.3166 5.93266 17.3252 5.89094 17.3378 5.85045 17.3544 5.81066 17.371 5.77223 17.3916 5.73643 17.4154 5.69998 17.4393 5.66617 17.4671 5.63564 17.4976 5.60447 17.5281 5.57728 17.5619 5.55279 17.5984 5.52895 17.6342 5.50838 17.6726 5.4918 17.7131 5.47521 17.7529 5.46262 17.7946 5.454 17.8371 5.44539 17.8795 5.44141 17.9232 5.44141 17.9663 5.44141 18.0094 5.44539 18.0532 5.454 18.0962 5.46262 18.138 5.47521 18.1797 5.4918 18.2202 5.50838 18.26 5.52895 18.2984 5.55279 18.3342 5.57734 18.3707 5.60447 18.4045 5.63564 18.435 5.66611 18.4655 5.69992 18.4934 5.73643 18.5179 5.77223 18.5417 5.81066 18.5623 5.85045 18.5789 5.89088 18.5954 5.93266 18.608 5.97443 18.6166 6.0175 18.6253 6.06127 18.6292 6.10434 18.6292 6.1474 18.6292 6.19117 18.6253 6.23359 18.6166 6.27601 18.608 6.31779 18.5954 6.35758 18.5789 6.39801 18.5623 6.43644 18.5417 6.47224 18.5179 6.50869 18.4933 6.5425 18.4655 6.57303 18.435 6.60349 18.4045 6.63139 18.3707 6.65523 18.3342 6.67908 18.2984 6.69965 18.26 6.71623 18.2202 6.73281 18.1798 6.74541 18.138 6.75402 18.0962 6.76263 18.0532 6.76726 18.0094 6.76726 17.9663 6.76726 17.9232 6.76263 17.8795 6.75402 17.8371z" fill="#100d0d"/></svg>