<svg width="30" height="30" viewBox="0 0 30 30" fill="none" xmlns="http://www.w3.org/2000/svg">
<path d="M28.0262 28.5209H24.7411V26.3335C24.7411 25.9769 24.4501 25.6877 24.0912 25.6877H22.1137V23.4192C22.1137 23.0625 21.8227 22.7734 21.4638 22.7734H19.6822V11.2956H24.9066C25.2655 11.2956 25.5565 11.0065 25.5565 10.6498V6.06655C25.5565 5.70991 25.2655 5.42075 24.9066 5.42075H22.6489L18.4119 1.66146V0.645802C18.4119 0.2891 18.1208 0 17.762 0H14.9306C14.5718 0 14.2807 0.2891 14.2807 0.645802V1.66158L10.0437 5.42081H5.09281C4.73398 5.42081 4.44295 5.70991 4.44295 6.06661V10.6485C4.44295 10.6489 4.44289 10.6493 4.44289 10.6497V18.1967C4.44289 18.5533 4.73387 18.8425 5.09275 18.8425H5.9293V19.5575C5.18463 19.7951 4.6441 20.4899 4.6441 21.3079C4.6441 22.3213 5.47379 23.1457 6.4935 23.1457C7.08283 23.1457 7.64205 22.8628 7.98928 22.3889C8.20056 22.1006 8.13658 21.6966 7.84642 21.4867C7.55639 21.2768 7.14986 21.3403 6.93857 21.6287C6.83357 21.772 6.67133 21.8542 6.4935 21.8542C6.19039 21.8542 5.94377 21.6091 5.94377 21.3079C5.94377 21.0067 6.19039 20.7617 6.4935 20.7617H6.57916C6.93799 20.7617 7.22902 20.4726 7.22902 20.1159V18.8425H8.07301C8.43183 18.8425 8.72287 18.5534 8.72287 18.1967V11.2956H13.0104V22.7735H11.2287C10.8699 22.7735 10.5789 23.0626 10.5789 23.4193V25.6878H8.60141C8.24258 25.6878 7.95154 25.9769 7.95154 26.3336V28.521H4.11764C3.75881 28.521 3.46777 28.8101 3.46777 29.1668C3.46777 29.5235 3.75875 29.8126 4.11764 29.8126H8.60135H24.0912H28.0263C28.3851 29.8126 28.6761 29.5235 28.6761 29.1668C28.6761 28.8101 28.3852 28.5209 28.0262 28.5209ZM18.4118 3.39298L20.6973 5.42075H18.4118V3.39298ZM16.3463 1.56044L17.1122 2.2399V5.42081H15.5805V2.23996H15.5804L16.3463 1.56044ZM14.2807 3.39304V5.42081H11.9952L14.2807 3.39304ZM7.42308 17.551H6.99834C6.88514 17.4558 6.739 17.3982 6.5791 17.3982C6.4192 17.3982 6.27307 17.4558 6.15986 17.551H5.74262V11.2956H7.42314V17.551H7.42308ZM8.07295 10.0039H5.74268V9.00396H19.9786C20.3374 9.00396 20.6284 8.71486 20.6284 8.35816C20.6284 8.00151 20.3374 7.71235 19.9786 7.71235H5.74268V6.71235H14.9305H17.762H24.2567V10.0039H19.0323H13.6602H8.07295ZM18.3825 21.3395V22.7734H15.3233L18.3825 21.3395ZM14.3101 21.8202V18.0835L17.6393 20.2598L14.3101 21.8202ZM14.9798 16.9753L18.3825 15.0867V19.1997L14.9798 16.9753ZM14.3101 15.8676V11.8431L17.6971 13.9877L14.3101 15.8676ZM15.8639 11.2956H18.3825V12.8903L15.8639 11.2956ZM11.8786 24.065H13.6602H19.0323H20.814V25.6878H11.8786V24.065ZM23.4413 28.5209H9.25121V26.9793H11.2287H21.4638H23.4413V28.5209H23.4413Z" fill="#100D0D"/>
<path d="M2.43309 28.7101C2.4032 28.6804 2.37004 28.6532 2.3343 28.63C2.2992 28.6068 2.26088 28.5867 2.22191 28.5706C2.18283 28.5545 2.14199 28.5422 2.10039 28.5338C2.01654 28.517 1.93012 28.517 1.84633 28.5338C1.80473 28.5422 1.76371 28.5545 1.7248 28.5706C1.6859 28.5867 1.64811 28.6068 1.61301 28.63C1.57727 28.6532 1.54404 28.6804 1.51416 28.7101C1.39264 28.8302 1.32373 28.9968 1.32373 29.1666C1.32373 29.3365 1.39264 29.5031 1.51416 29.6232C1.54404 29.6529 1.57727 29.68 1.61301 29.7039C1.64811 29.7271 1.68578 29.7472 1.7248 29.7633C1.76377 29.7794 1.80473 29.7917 1.84633 29.8001C1.88857 29.8085 1.93082 29.8124 1.97371 29.8124C2.01596 29.8124 2.05885 29.8085 2.10045 29.8001C2.14205 29.7917 2.18301 29.7794 2.22197 29.7633C2.26094 29.7472 2.29926 29.7271 2.33436 29.7039C2.3701 29.68 2.40332 29.6529 2.4332 29.6232C2.46309 29.5935 2.49039 29.5605 2.51371 29.525C2.53709 29.4901 2.5573 29.4527 2.57354 29.4139C2.58977 29.3745 2.60207 29.3339 2.61051 29.2925C2.61895 29.2512 2.62352 29.2086 2.62352 29.1666C2.62352 28.9968 2.55396 28.8302 2.43309 28.7101Z" fill="#100D0D"/>
<path d="M22.7606 8.23203C22.7521 8.19069 22.7398 8.14999 22.7235 8.11127C22.7073 8.07255 22.6872 8.03441 22.6638 7.99953C22.6397 7.96401 22.6131 7.93105 22.5826 7.90136C22.5527 7.87166 22.5195 7.84453 22.4838 7.82129C22.4487 7.79806 22.411 7.77803 22.3719 7.7619C22.333 7.74577 22.2921 7.73349 22.2504 7.7251C22.1666 7.70833 22.0802 7.70833 21.9964 7.7251C21.9547 7.73349 21.9138 7.74577 21.8749 7.7619C21.8358 7.77803 21.7981 7.79806 21.7624 7.82129C21.7273 7.84453 21.6935 7.87166 21.6636 7.90136C21.5428 8.02148 21.4731 8.18807 21.4731 8.35792C21.4731 8.40054 21.4777 8.44252 21.4862 8.48451C21.4946 8.52585 21.507 8.56655 21.5232 8.60527C21.5395 8.64399 21.5596 8.68149 21.583 8.71701C21.6064 8.75189 21.6337 8.78484 21.6636 8.81518C21.6935 8.84488 21.7272 8.87137 21.7624 8.89524C21.7981 8.91848 21.8358 8.93851 21.8748 8.95463C21.9138 8.97076 21.9547 8.98305 21.9963 8.99143C22.0385 8.99982 22.0808 9.00372 22.1237 9.00372C22.2946 9.00372 22.4616 8.93525 22.5825 8.81518C22.613 8.78484 22.6397 8.75189 22.6637 8.71701C22.6871 8.68149 22.7073 8.64405 22.7235 8.60527C22.7397 8.56655 22.7521 8.52585 22.7605 8.48451C22.7689 8.44252 22.7728 8.40054 22.7728 8.35792C22.7728 8.31599 22.7689 8.27401 22.7606 8.23203Z" fill="#100D0D"/>
</svg>
